<svg xmlns="http://www.w3.org/2000/svg" viewBox="-48 160.98 503.65999999999997 253.04999999999998"> <g transform="rotate(90 110.5 286.5)"><svg xmlns="http://www.w3.org/2000/svg" xmlns:xlink="http://www.w3.org/1999/xlink" viewBox="0 0 58.529998779296875 37.18000030517578" height="113" width="177" y="230" x="22" preserveAspectRatio="xMinYMin" style="overflow: visible;"><linearGradient id="linear-gradient" y1="18.59" x2="25.97" y2="18.59" gradientUnits="userSpaceOnUse" style=""><stop offset="0" stop-color="#1ecafd"></stop><stop offset="1" stop-color="#005dc6"></stop></linearGradient><linearGradient id="linear-gradient-2" x1="16.38" y1="18.59" x2="25.97" y2="18.59" gradientUnits="userSpaceOnUse" style=""><stop offset="0" stop-color="#008ffa"></stop><stop offset="1" stop-color="#54b2fe"></stop></linearGradient><linearGradient id="linear-gradient-3" x1="53.74" y1="43.02" x2="20.99" y2="0.53" gradientUnits="userSpaceOnUse" style=""><stop offset="0" stop-color="#1beb73"></stop><stop offset="1" stop-color="#00b9d0"></stop></linearGradient><linearGradient id="linear-gradient-4" x1="37.35" y1="37.55" x2="37.35" y2="3.03" gradientUnits="userSpaceOnUse" style=""><stop offset="0" stop-color="#9ff14d"></stop><stop offset="0.04" stop-color="#30f177"></stop><stop offset="1" stop-color="#5ef0da"></stop></linearGradient><polygon id="Layer_1-2" dataName="Layer 1" class="cls-1" points="25.98 0 0 27.59 16.38 27.59 25.98 37.18 25.98 0" style="fill: url(#linear-gradient);"></polygon><polygon id="Layer_1-2" dataName="Layer 1" class="cls-2" points="25.98 0 16.38 27.59 25.98 37.18 25.98 0" style="fill: url(#linear-gradient-2);"></polygon><polygon id="Layer_1-2" dataName="Layer 1" class="cls-3" points="32.56 0 58.53 27.59 42.15 27.59 32.56 37.18 32.56 0" style="fill: url(#linear-gradient-3);"></polygon><polygon id="Layer_1-2" dataName="Layer 1" class="cls-4" points="32.56 0 42.15 27.59 32.56 37.18 32.56 0" style="fill: url(#linear-gradient-4);"></polygon></svg></g> <svg y="249" viewBox="2.5999999046325684 -2.3399999141693115 194.6599884033203 52.459999084472656" x="191" height="52" width="194" style="overflow: visible;"><g fill="#464a61" fill-opacity="1" style=""><path d="M16.51 48.75L7.41 48.75L7.41 28.27L2.60 28.27L2.60 20.21L7.41 20.21L7.41 10.34Q7.41 4.74 10.63 1.20Q13.85-2.34 19.96-2.34L19.96-2.34Q21.78-2.34 24.02-1.79Q26.26-1.23 27.95 0L27.95 0L24.12 6.56Q23.46 5.72 22.59 5.43Q21.71 5.13 20.93 5.13L20.93 5.13Q18.98 5.13 17.75 6.43Q16.51 7.73 16.51 10.59L16.51 10.59L16.51 20.21L25.09 20.21L25.09 28.27L16.51 28.27L16.51 48.75ZM38.97 49.53L38.97 49.53Q35 49.53 31.78 47.94Q28.57 46.34 26.68 43.03Q24.80 39.72 24.80 34.58L24.80 34.58Q24.80 29.77 26.75 26.26Q28.70 22.75 31.88 20.83Q35.07 18.91 38.64 18.91L38.64 18.91Q42.87 18.91 45.04 20.31Q47.22 21.71 48.65 23.40L48.65 23.40L48.26 24.50L49.11 20.34L57.56 20.34L57.56 48.75L48.46 48.75L48.46 42.58L49.17 44.52Q49.04 44.52 48.39 45.27Q47.74 46.02 46.47 47.03Q45.21 48.03 43.35 48.78Q41.50 49.53 38.97 49.53ZM41.57 42.12L41.57 42.12Q43.19 42.12 44.49 41.63Q45.79 41.14 46.77 40.20Q47.74 39.26 48.46 37.83L48.46 37.83L48.46 30.88Q47.94 29.45 46.90 28.44Q45.86 27.43 44.43 26.88Q43.00 26.32 41.24 26.32L41.24 26.32Q39.29 26.32 37.63 27.33Q35.98 28.34 35 30.09Q34.03 31.85 34.03 34.13L34.03 34.13Q34.03 36.40 35.07 38.22Q36.11 40.04 37.83 41.08Q39.55 42.12 41.57 42.12ZM82.48 40.49L87.03 46.22Q85.15 47.71 82.32 48.62Q79.49 49.53 76.76 49.53L76.76 49.53Q71.89 49.53 68.28 47.74Q64.67 45.95 62.69 42.61Q60.71 39.26 60.71 34.52L60.71 34.52Q60.71 29.77 62.85 26.42Q65.00 23.07 68.47 21.32Q71.95 19.56 75.79 19.56L75.79 19.56Q79.62 19.56 82.45 20.61Q85.28 21.64 87.29 23.34L87.29 23.34L82.87 29.18Q81.96 28.47 80.37 27.72Q78.78 26.97 76.63 26.97L76.63 26.97Q74.75 26.97 73.19 27.95Q71.63 28.93 70.72 30.61Q69.81 32.30 69.81 34.52L69.81 34.52Q69.81 36.59 70.78 38.35Q71.76 40.11 73.48 41.11Q75.20 42.12 77.54 42.12L77.54 42.12Q79.04 42.12 80.30 41.70Q81.57 41.27 82.48 40.49L82.48 40.49ZM92.72 20.21L92.72 7.87L101.81 7.87L101.81 20.21L108.71 20.21L108.71 27.30L101.81 27.30L101.81 48.75L92.72 48.75L92.72 27.30L88.30 27.30L88.30 20.21L92.72 20.21ZM125.64 49.53L125.64 49.53Q120.44 49.53 116.83 47.58Q113.22 45.63 111.34 42.19Q109.45 38.74 109.45 34.25L109.45 34.25Q109.45 29.96 111.66 26.52Q113.87 23.07 117.58 21.03Q121.28 18.98 125.83 18.98L125.83 18.98Q131.94 18.98 135.87 22.52Q139.81 26.06 140.98 32.76L140.98 32.76L118.88 39.78L116.86 34.84L132.85 29.45L130.97 30.29Q130.44 28.60 129.11 27.33Q127.78 26.06 125.12 26.06L125.12 26.06Q123.10 26.06 121.57 27.01Q120.05 27.95 119.23 29.67Q118.42 31.39 118.42 33.73L118.42 33.73Q118.42 36.40 119.40 38.19Q120.37 39.98 122.06 40.88Q123.75 41.80 125.83 41.80L125.83 41.80Q127.33 41.80 128.72 41.27Q130.12 40.76 131.49 39.91L131.49 39.91L135.52 46.67Q133.24 47.97 130.61 48.75Q127.98 49.53 125.64 49.53ZM152.77 50.12L152.77 50.12Q148.94 50.12 146.34 47.74Q143.74 45.37 143.61 41.60L143.61 41.60L143.61 20.34L152.71 20.34L152.71 38.22Q152.84 40.11 153.68 41.24Q154.53 42.38 156.54 42.38L156.54 42.38Q158.56 42.38 160.02 41.02Q161.48 39.65 162.29 37.28Q163.11 34.91 163.11 31.91L163.11 31.91L163.11 20.34L172.21 20.34L172.21 48.75L163.95 48.75L163.24 43.55L163.37 44.13Q162.39 45.89 160.90 47.26Q159.40 48.62 157.35 49.37Q155.31 50.12 152.77 50.12ZM177.57 20.34L185.76 20.34L186.60 28.14L186.41 26.97Q187.64 24.44 189.79 22.65Q191.93 20.86 194.04 19.89Q196.16 18.91 197.26 18.91L197.26 18.91L196.81 28.02Q193.62 27.63 191.35 29.05Q189.07 30.48 187.84 32.83Q186.60 35.16 186.60 37.63L186.60 37.63L186.60 48.75L177.57 48.75L177.57 20.34Z" transform="translate(0, 0)"></path></g></svg></svg>